<svg viewBox="0 0 968 812" role="img" aria-label="Bản vẽ mặt trước có kích thước: cửa sổ màn hình, lỗ phím cơ, lưới phím tròn, bo góc" xmlns="http://www.w3.org/2000/svg" style="max-width:100%;height:auto;display:block"><defs><marker id="da" viewBox="0 0 10 10" refX="5" refY="5" markerWidth="6" markerHeight="6" orient="auto-start-reverse"><path d="M0 2 L10 5 L0 8 z" fill="context-stroke"/></marker></defs><path d="M252.0 728.0 L488.0 728.0 A36.0 36.0 0 0 0 524.0 692.0 L524.0 82.0 A16.0 16.0 0 0 0 508.0 66.0 L232.0 66.0 A16.0 16.0 0 0 0 216.0 82.0 L216.0 692.0 A36.0 36.0 0 0 0 252.0 728.0 Z" fill="#fff" stroke="currentColor" stroke-width="1.6"/><rect x="249.0" y="87.0" width="242.0" height="172.0" rx="2.0" fill="none" stroke="#6B7280" stroke-width="0.8" stroke-dasharray="4 3"/><rect x="270.8" y="97.8" width="198.4" height="150.4" rx="4.0" fill="#BFD7F5" stroke="currentColor" stroke-width="1.2"/><path d="M364.0 173.0 h12.0 M370.0 167.0 v12.0" stroke="currentColor" stroke-width="0.8"/><text x="370.0" y="192.5" font-size="10" font-family="monospace" text-anchor="middle" fill="#6B7280">active 49 × 37</text><rect x="220.0" y="273.0" width="72.0" height="72.0" rx="4.0" fill="none" stroke="#6B7280" stroke-width="0.7" stroke-dasharray="3 3"/><rect x="228.0" y="281.0" width="56.0" height="56.0" rx="0.0" fill="#F4C7B5" stroke="currentColor" stroke-width="1.2"/><text x="256.0" y="313.6" font-size="13" font-family="sans-serif" text-anchor="middle" fill="currentColor" font-weight="600">←</text><rect x="296.0" y="273.0" width="72.0" height="72.0" rx="4.0" fill="none" stroke="#6B7280" stroke-width="0.7" stroke-dasharray="3 3"/><rect x="304.0" y="281.0" width="56.0" height="56.0" rx="0.0" fill="#F4C7B5" stroke="currentColor" stroke-width="1.2"/><text x="332.0" y="313.6" font-size="13" font-family="sans-serif" text-anchor="middle" fill="currentColor" font-weight="600">↓</text><rect x="372.0" y="273.0" width="72.0" height="72.0" rx="4.0" fill="none" stroke="#6B7280" stroke-width="0.7" stroke-dasharray="3 3"/><rect x="380.0" y="281.0" width="56.0" height="56.0" rx="0.0" fill="#F4C7B5" stroke="currentColor" stroke-width="1.2"/><text x="408.0" y="313.6" font-size="13" font-family="sans-serif" text-anchor="middle" fill="currentColor" font-weight="600">↑</text><rect x="448.0" y="273.0" width="72.0" height="72.0" rx="4.0" fill="none" stroke="#6B7280" stroke-width="0.7" stroke-dasharray="3 3"/><rect x="456.0" y="281.0" width="56.0" height="56.0" rx="0.0" fill="#F4C7B5" stroke="currentColor" stroke-width="1.2"/><text x="484.0" y="313.6" font-size="13" font-family="sans-serif" text-anchor="middle" fill="currentColor" font-weight="600">→</text><circle cx="260.0" cy="565.0" r="12.0" fill="#E5E7EB" stroke="currentColor" stroke-width="1.2"/><circle cx="304.0" cy="565.0" r="12.0" fill="#E5E7EB" stroke="currentColor" stroke-width="1.2"/><circle cx="348.0" cy="565.0" r="12.0" fill="#E5E7EB" stroke="currentColor" stroke-width="1.2"/><circle cx="392.0" cy="565.0" r="12.0" fill="#E5E7EB" stroke="currentColor" stroke-width="1.2"/><circle cx="436.0" cy="565.0" r="12.0" fill="#E5E7EB" stroke="currentColor" stroke-width="1.2"/><circle cx="480.0" cy="565.0" r="12.0" fill="#E5E7EB" stroke="currentColor" stroke-width="1.2"/><circle cx="260.0" cy="617.0" r="12.0" fill="#E5E7EB" stroke="currentColor" stroke-width="1.2"/><circle cx="304.0" cy="617.0" r="12.0" fill="#E5E7EB" stroke="currentColor" stroke-width="1.2"/><circle cx="348.0" cy="617.0" r="12.0" fill="#E5E7EB" stroke="currentColor" stroke-width="1.2"/><circle cx="392.0" cy="617.0" r="12.0" fill="#E5E7EB" stroke="currentColor" stroke-width="1.2"/><circle cx="436.0" cy="617.0" r="12.0" fill="#E5E7EB" stroke="currentColor" stroke-width="1.2"/><circle cx="480.0" cy="617.0" r="12.0" fill="#E5E7EB" stroke="currentColor" stroke-width="1.2"/><circle cx="260.0" cy="669.0" r="12.0" fill="#E5E7EB" stroke="currentColor" stroke-width="1.2"/><circle cx="304.0" cy="669.0" r="12.0" fill="#E5E7EB" stroke="currentColor" stroke-width="1.2"/><circle cx="348.0" cy="669.0" r="12.0" fill="#E5E7EB" stroke="currentColor" stroke-width="1.2"/><circle cx="392.0" cy="669.0" r="12.0" fill="#E5E7EB" stroke="currentColor" stroke-width="1.2"/><circle cx="436.0" cy="669.0" r="12.0" fill="#E5E7EB" stroke="currentColor" stroke-width="1.2"/><circle cx="480.0" cy="669.0" r="12.0" fill="#E5E7EB" stroke="currentColor" stroke-width="1.2"/><circle cx="504.0" cy="85.0" r="4.8" fill="none" stroke="#6B7280" stroke-width="0.7" stroke-dasharray="1.5 1.5"/><circle cx="504.0" cy="237.0" r="4.8" fill="none" stroke="#6B7280" stroke-width="0.7" stroke-dasharray="1.5 1.5"/><circle cx="236.0" cy="237.0" r="4.8" fill="none" stroke="#6B7280" stroke-width="0.7" stroke-dasharray="1.5 1.5"/><circle cx="498.0" cy="477.0" r="4.8" fill="none" stroke="#6B7280" stroke-width="0.7" stroke-dasharray="1.5 1.5"/><circle cx="242.0" cy="477.0" r="4.8" fill="none" stroke="#6B7280" stroke-width="0.7" stroke-dasharray="1.5 1.5"/><circle cx="490.0" cy="701.0" r="4.8" fill="none" stroke="#6B7280" stroke-width="0.7" stroke-dasharray="1.5 1.5"/><circle cx="250.0" cy="701.0" r="4.8" fill="none" stroke="#6B7280" stroke-width="0.7" stroke-dasharray="1.5 1.5"/><circle cx="238.0" cy="187.0" r="4.8" fill="none" stroke="#6B7280" stroke-width="0.7" stroke-dasharray="1.5 1.5"/><circle cx="238.0" cy="95.0" r="4.8" fill="none" stroke="#6B7280" stroke-width="0.7" stroke-dasharray="1.5 1.5"/><line x1="216.0" y1="34.0" x2="524.0" y2="34.0" stroke="#1F5FBF" stroke-width="1" marker-start="url(#da)" marker-end="url(#da)"/><line x1="216.0" y1="28.0" x2="216.0" y2="40.0" stroke="#1F5FBF" stroke-width="0.7"/><line x1="524.0" y1="28.0" x2="524.0" y2="40.0" stroke="#1F5FBF" stroke-width="0.7"/><text x="370.0" y="31.7" font-size="10.5" font-family="monospace" text-anchor="middle" fill="#1F5FBF" paint-order="stroke" stroke="#fff" stroke-width="3" stroke-linejoin="round">77.0</text><line x1="40.0" y1="728.0" x2="40.0" y2="66.0" stroke="#1F5FBF" stroke-width="1" marker-start="url(#da)" marker-end="url(#da)"/><line x1="34.0" y1="728.0" x2="46.0" y2="728.0" stroke="#1F5FBF" stroke-width="0.7"/><line x1="34.0" y1="66.0" x2="46.0" y2="66.0" stroke="#1F5FBF" stroke-width="0.7"/><text x="31.0" y="400.7" font-size="10.5" font-family="monospace" text-anchor="middle" fill="#1F5FBF" transform="rotate(-90 31.0 400.7)" paint-order="stroke" stroke="#fff" stroke-width="3" stroke-linejoin="round">165.5</text><line x1="160.0" y1="397.0" x2="160.0" y2="173.0" stroke="#1F5FBF" stroke-width="1" marker-start="url(#da)" marker-end="url(#da)"/><line x1="154.0" y1="397.0" x2="166.0" y2="397.0" stroke="#1F5FBF" stroke-width="0.7"/><line x1="154.0" y1="173.0" x2="166.0" y2="173.0" stroke="#1F5FBF" stroke-width="0.7"/><text x="151.0" y="288.7" font-size="10.5" font-family="monospace" text-anchor="middle" fill="#1F5FBF" transform="rotate(-90 151.0 288.7)" paint-order="stroke" stroke="#fff" stroke-width="3" stroke-linejoin="round">56</text><line x1="270.8" y1="81.8" x2="469.2" y2="81.8" stroke="#1F5FBF" stroke-width="1" marker-start="url(#da)" marker-end="url(#da)"/><line x1="270.8" y1="75.8" x2="270.8" y2="87.8" stroke="#1F5FBF" stroke-width="0.7"/><line x1="469.2" y1="75.8" x2="469.2" y2="87.8" stroke="#1F5FBF" stroke-width="0.7"/><text x="370.0" y="79.3" font-size="10" font-family="monospace" text-anchor="middle" fill="#1F5FBF" paint-order="stroke" stroke="#fff" stroke-width="3" stroke-linejoin="round">49.6</text><line x1="489.2" y1="248.2" x2="489.2" y2="97.8" stroke="#1F5FBF" stroke-width="1" marker-start="url(#da)" marker-end="url(#da)"/><line x1="483.2" y1="248.2" x2="495.2" y2="248.2" stroke="#1F5FBF" stroke-width="0.7"/><line x1="483.2" y1="97.8" x2="495.2" y2="97.8" stroke="#1F5FBF" stroke-width="0.7"/><text x="498.2" y="176.5" font-size="10" font-family="monospace" text-anchor="middle" fill="#1F5FBF" transform="rotate(-90 498.2 176.5)" paint-order="stroke" stroke="#fff" stroke-width="3" stroke-linejoin="round">37.6</text><line x1="256.0" y1="361.0" x2="332.0" y2="361.0" stroke="#1F5FBF" stroke-width="1" marker-start="url(#da)" marker-end="url(#da)"/><line x1="256.0" y1="355.0" x2="256.0" y2="367.0" stroke="#1F5FBF" stroke-width="0.7"/><line x1="332.0" y1="355.0" x2="332.0" y2="367.0" stroke="#1F5FBF" stroke-width="0.7"/><text x="294.0" y="358.5" font-size="10" font-family="monospace" text-anchor="middle" fill="#1F5FBF" paint-order="stroke" stroke="#fff" stroke-width="3" stroke-linejoin="round">19.0</text><line x1="104.0" y1="565.0" x2="104.0" y2="397.0" stroke="#1F5FBF" stroke-width="1" marker-start="url(#da)" marker-end="url(#da)"/><line x1="98.0" y1="565.0" x2="110.0" y2="565.0" stroke="#1F5FBF" stroke-width="0.7"/><line x1="98.0" y1="397.0" x2="110.0" y2="397.0" stroke="#1F5FBF" stroke-width="0.7"/><text x="95.0" y="484.5" font-size="10" font-family="monospace" text-anchor="middle" fill="#1F5FBF" transform="rotate(-90 95.0 484.5)" paint-order="stroke" stroke="#fff" stroke-width="3" stroke-linejoin="round">42</text><line x1="104.0" y1="397.0" x2="104.0" y2="309.0" stroke="#1F5FBF" stroke-width="1" marker-start="url(#da)" marker-end="url(#da)"/><line x1="98.0" y1="397.0" x2="110.0" y2="397.0" stroke="#1F5FBF" stroke-width="0.7"/><line x1="98.0" y1="309.0" x2="110.0" y2="309.0" stroke="#1F5FBF" stroke-width="0.7"/><text x="95.0" y="356.5" font-size="10" font-family="monospace" text-anchor="middle" fill="#1F5FBF" transform="rotate(-90 95.0 356.5)" paint-order="stroke" stroke="#fff" stroke-width="3" stroke-linejoin="round">22</text><line x1="370.0" y1="361.0" x2="484.0" y2="361.0" stroke="#1F5FBF" stroke-width="1" marker-start="url(#da)" marker-end="url(#da)"/><line x1="370.0" y1="355.0" x2="370.0" y2="367.0" stroke="#1F5FBF" stroke-width="0.7"/><line x1="484.0" y1="355.0" x2="484.0" y2="367.0" stroke="#1F5FBF" stroke-width="0.7"/><text x="427.0" y="358.5" font-size="10" font-family="monospace" text-anchor="middle" fill="#1F5FBF" paint-order="stroke" stroke="#fff" stroke-width="3" stroke-linejoin="round">28.5</text><line x1="512.0" y1="281.0" x2="548.0" y2="245.0" stroke="#1F5FBF" stroke-width="0.9"/><circle cx="512.0" cy="281.0" r="1.8" fill="#1F5FBF"/><text x="551.2" y="248.7" font-size="10.5" font-family="sans-serif" text-anchor="start" fill="#1F5FBF" paint-order="stroke" stroke="#fff" stroke-width="3" stroke-linejoin="round">lỗ MX 14 × 14, plate 1.5, pitch 19</text><line x1="260.0" y1="533.0" x2="304.0" y2="533.0" stroke="#1F5FBF" stroke-width="1" marker-start="url(#da)" marker-end="url(#da)"/><line x1="260.0" y1="527.0" x2="260.0" y2="539.0" stroke="#1F5FBF" stroke-width="0.7"/><line x1="304.0" y1="527.0" x2="304.0" y2="539.0" stroke="#1F5FBF" stroke-width="0.7"/><text x="282.0" y="530.5" font-size="10" font-family="monospace" text-anchor="middle" fill="#1F5FBF" paint-order="stroke" stroke="#fff" stroke-width="3" stroke-linejoin="round">11.0</text><line x1="370.0" y1="617.0" x2="370.0" y2="565.0" stroke="#1F5FBF" stroke-width="1" marker-start="url(#da)" marker-end="url(#da)"/><line x1="364.0" y1="617.0" x2="376.0" y2="617.0" stroke="#1F5FBF" stroke-width="0.7"/><line x1="364.0" y1="565.0" x2="376.0" y2="565.0" stroke="#1F5FBF" stroke-width="0.7"/><text x="379.0" y="594.5" font-size="10" font-family="monospace" text-anchor="middle" fill="#1F5FBF" transform="rotate(-90 379.0 594.5)" paint-order="stroke" stroke="#fff" stroke-width="3" stroke-linejoin="round">13.0</text><line x1="260.0" y1="701.0" x2="480.0" y2="701.0" stroke="#1F5FBF" stroke-width="1" marker-start="url(#da)" marker-end="url(#da)"/><line x1="260.0" y1="695.0" x2="260.0" y2="707.0" stroke="#1F5FBF" stroke-width="0.7"/><line x1="480.0" y1="695.0" x2="480.0" y2="707.0" stroke="#1F5FBF" stroke-width="0.7"/><text x="370.0" y="698.5" font-size="10" font-family="monospace" text-anchor="middle" fill="#1F5FBF" paint-order="stroke" stroke="#fff" stroke-width="3" stroke-linejoin="round">55</text><line x1="519.2" y1="70.8" x2="548.0" y2="106.0" stroke="#1F5FBF" stroke-width="0.9"/><circle cx="519.2" cy="70.8" r="1.8" fill="#1F5FBF"/><text x="551.2" y="109.7" font-size="10.5" font-family="sans-serif" text-anchor="start" fill="#1F5FBF" paint-order="stroke" stroke="#fff" stroke-width="3" stroke-linejoin="round">R4</text><line x1="513.6" y1="717.6" x2="548.0" y2="680.0" stroke="#1F5FBF" stroke-width="0.9"/><circle cx="513.6" cy="717.6" r="1.8" fill="#1F5FBF"/><text x="551.2" y="683.7" font-size="10.5" font-family="sans-serif" text-anchor="start" fill="#1F5FBF" paint-order="stroke" stroke="#fff" stroke-width="3" stroke-linejoin="round">R9</text><line x1="491.0" y1="243.0" x2="548.0" y2="271.0" stroke="#B8620A" stroke-width="0.9"/><circle cx="491.0" cy="243.0" r="1.8" fill="#B8620A"/><text x="551.2" y="274.7" font-size="10.5" font-family="sans-serif" text-anchor="start" fill="#B8620A" paint-order="stroke" stroke="#fff" stroke-width="3" stroke-linejoin="round">hộc module 60.5 × 43 × 4.6 — đo lại PCB</text><line x1="490.0" y1="663.0" x2="548.0" y2="629.0" stroke="#1F5FBF" stroke-width="0.9"/><circle cx="490.0" cy="663.0" r="1.8" fill="#1F5FBF"/><text x="551.2" y="632.7" font-size="10.5" font-family="sans-serif" text-anchor="start" fill="#1F5FBF" paint-order="stroke" stroke="#fff" stroke-width="3" stroke-linejoin="round">lỗ Ø6.0 · nút Ø5.5, vành Ø8</text><text x="370.0" y="787.7" font-size="10.5" font-family="sans-serif" text-anchor="middle" fill="#6B7280">MẶT TRƯỚC — nhìn từ ngoài · mm · tâm (0,0) giữa máy, +Y lên đỉnh · vòng đứt = boss ốc phía trong</text></svg>